<?xml version="1.0" standalone="no"?>
<!DOCTYPE svg PUBLIC "-//W3C//DTD SVG 20010904//EN"
 "http://www.w3.org/TR/2001/REC-SVG-20010904/DTD/svg10.dtd">
<svg version="1.0" xmlns="http://www.w3.org/2000/svg"
 width="431.000000pt" height="431.000000pt" viewBox="0 0 431.000000 431.000000"
 preserveAspectRatio="xMidYMid meet">
<metadata>
Created by potrace 1.11, written by Peter Selinger 2001-2013
</metadata>
<g transform="translate(0.000000,431.000000) scale(0.100000,-0.100000)"
fill="#000000" stroke="none">
<path d="M437 4303 c-2 -4 -4 -975 -4 -2156 l0 -2148 1091 4 c600 2 1109 7
1131 11 22 4 72 14 110 22 39 9 81 18 95 20 14 3 72 21 129 40 318 106 568
302 722 566 165 282 210 660 114 961 -83 262 -269 477 -523 604 l-92 47 52 28
c250 136 440 421 474 708 3 30 8 58 10 62 9 15 4 240 -6 304 -81 485 -436 802
-1010 899 -47 8 -101 17 -120 21 -49 10 -2167 16 -2173 7z m2028 -740 c246
-70 369 -225 367 -463 -1 -139 -41 -247 -121 -328 -61 -61 -123 -96 -231 -130
l-85 -26 -522 -4 -523 -4 0 491 0 490 523 -3 c485 -3 527 -5 592 -23z m-105
-1684 c30 -5 69 -11 85 -13 118 -20 257 -88 332 -164 100 -102 144 -232 138
-410 -3 -114 -5 -127 -31 -204 -59 -177 -214 -303 -424 -342 -14 -2 -44 -9
-68 -14 -26 -6 -251 -11 -543 -12 l-499 -1 0 586 0 586 478 -2 c262 0 502 -5
532 -10z"/>
</g>
</svg>
